<svg width="139" height="139" viewBox="0 0 139 139" fill="none" xmlns="http://www.w3.org/2000/svg">
<path d="M69.1147 46.079C56.4204 46.079 46.0609 56.4387 46.0609 69.1333C46.0609 81.8278 56.4204 92.1875 69.1147 92.1875C81.809 92.1875 92.1685 81.8278 92.1685 69.1333C92.1685 56.4387 81.809 46.079 69.1147 46.079ZM138.259 69.1333C138.259 59.5864 138.345 50.1261 137.809 40.5965C137.273 29.5277 134.748 19.7041 126.654 11.6101C118.543 3.49873 108.737 0.990959 97.6682 0.454814C88.1215 -0.081331 78.6613 0.0051443 69.132 0.0051443C59.5853 0.0051443 50.1251 -0.081331 40.5958 0.454814C29.5272 0.990959 19.7038 3.51603 11.6099 11.6101C3.49867 19.7214 0.990941 29.5277 0.454806 40.5965C-0.0813294 50.1434 0.0051442 59.6037 0.0051442 69.1333C0.0051442 78.6628 -0.0813294 88.1405 0.454806 97.67C0.990941 108.739 3.51596 118.562 11.6099 126.656C19.7211 134.768 29.5272 137.276 40.5958 137.812C50.1424 138.348 59.6026 138.261 69.132 138.261C78.6786 138.261 88.1388 138.348 97.6682 137.812C108.737 137.276 118.56 134.75 126.654 126.656C134.765 118.545 137.273 108.739 137.809 97.67C138.363 88.1405 138.259 78.6801 138.259 69.1333V69.1333ZM69.1147 104.605C49.4852 104.605 33.6433 88.7631 33.6433 69.1333C33.6433 49.5034 49.4852 33.6612 69.1147 33.6612C88.7441 33.6612 104.586 49.5034 104.586 69.1333C104.586 88.7631 88.7441 104.605 69.1147 104.605ZM106.039 40.4927C101.456 40.4927 97.7547 36.7916 97.7547 32.2084C97.7547 27.6253 101.456 23.9241 106.039 23.9241C110.622 23.9241 114.323 27.6253 114.323 32.2084C114.324 33.2967 114.111 34.3746 113.695 35.3803C113.279 36.386 112.669 37.2998 111.9 38.0694C111.13 38.8389 110.216 39.4491 109.211 39.8649C108.205 40.2808 107.127 40.4941 106.039 40.4927V40.4927Z" fill="#141414"/>
</svg>
